<?xml version="1.0" encoding="UTF-8"?><svg id="Layer_2" xmlns="http://www.w3.org/2000/svg" xmlns:xlink="http://www.w3.org/1999/xlink" viewBox="0 0 738.48 78.38"><defs><style>.cls-1{fill:url(#linear-gradient-2);}.cls-2{fill:url(#linear-gradient-6);}.cls-3{fill:url(#linear-gradient-11);}.cls-4{fill:url(#linear-gradient-10);}.cls-5{fill:url(#linear-gradient-5);}.cls-6{fill:url(#linear-gradient-7);}.cls-7{fill:url(#linear-gradient-9);}.cls-8{fill:url(#linear-gradient-3);}.cls-9{fill:url(#linear-gradient);}.cls-10{fill:url(#linear-gradient-4);}.cls-11{fill:url(#linear-gradient-8);}.cls-12{fill:url(#linear-gradient-12);}.cls-13{fill:url(#linear-gradient-13);}</style><linearGradient id="linear-gradient" x1="32.82" y1="8.53" x2="32.82" y2="77.2" gradientUnits="userSpaceOnUse"><stop offset="0" stop-color="#a3864b"/><stop offset=".28" stop-color="#9f8248"/><stop offset=".56" stop-color="#937640"/><stop offset=".83" stop-color="#806233"/><stop offset="1" stop-color="#715329"/></linearGradient><linearGradient id="linear-gradient-2" x1="79.17" y1="0" x2="79.17" y2="77.2" xlink:href="#linear-gradient"/><linearGradient id="linear-gradient-3" x1="117.42" y1="23.64" x2="117.42" xlink:href="#linear-gradient"/><linearGradient id="linear-gradient-4" x1="161.12" y1="23.64" x2="161.12" y2="77.98" xlink:href="#linear-gradient"/><linearGradient id="linear-gradient-5" x1="227" y1="23.64" x2="227" xlink:href="#linear-gradient"/><linearGradient id="linear-gradient-6" x1="319.8" y1="7.36" x2="319.8" y2="78.38" xlink:href="#linear-gradient"/><linearGradient id="linear-gradient-7" x1="385.13" y1="4.41" x2="385.13" xlink:href="#linear-gradient"/><linearGradient id="linear-gradient-8" x1="442.33" y1="23.64" x2="442.33" xlink:href="#linear-gradient"/><linearGradient id="linear-gradient-9" x1="491.27" y1="23.64" x2="491.27" y2="77.98" xlink:href="#linear-gradient"/><linearGradient id="linear-gradient-10" x1="548.03" y1="23.64" x2="548.03" y2="77.99" xlink:href="#linear-gradient"/><linearGradient id="linear-gradient-11" x1="595.16" y1="12.75" x2="595.16" y2="77.98" xlink:href="#linear-gradient"/><linearGradient id="linear-gradient-12" x1="650.98" y1="4.41" x2="650.98" xlink:href="#linear-gradient"/><linearGradient id="linear-gradient-13" x1="713.41" y1="23.64" x2="713.41" y2="77.98" xlink:href="#linear-gradient"/></defs><g id="Layer_1-2"><g><polygon class="cls-9" points="65.63 77.2 46.99 77.2 24.91 50.25 15.79 59.77 15.79 77.2 0 77.2 0 8.53 15.79 8.53 15.79 40.58 46.21 8.53 63.86 8.53 35.48 39.18 65.63 77.2"/><path class="cls-1" d="M79.17,17.07c-2.88,0-5.2-.82-6.96-2.45-1.77-1.63-2.65-3.66-2.65-6.08s.88-4.45,2.65-6.08c1.77-1.63,4.09-2.45,6.96-2.45s5.12,.77,6.92,2.31c1.8,1.54,2.7,3.52,2.7,5.94,0,2.55-.88,4.66-2.65,6.33-1.77,1.67-4.09,2.5-6.96,2.5Zm-7.65,60.13V24.43h15.3v52.78h-15.3Z"/><path class="cls-8" d="M133.81,23.64v14.22c-.59-.13-1.17-.23-1.72-.29-.56-.07-1.1-.1-1.62-.1-4.32,0-7.75,1.21-10.3,3.63-2.55,2.42-3.83,6.15-3.83,11.18v24.92h-15.3V24.42h14.62v6.92c1.44-1.97,3.27-3.57,5.49-4.81,3.47-1.93,7.69-2.89,12.66-2.89Z"/><path class="cls-10" d="M179.52,29.33c-4.45-3.79-10.69-5.69-18.74-5.69-4.18,0-8.3,.54-12.36,1.62-4.05,1.08-7.52,2.66-10.39,4.75l5.39,10.7c1.96-1.51,4.3-2.7,7.02-3.58,2.71-.89,5.47-1.33,8.28-1.33,4.12,0,7.18,.92,9.18,2.75,1.99,1.83,2.99,4.38,2.99,7.65v.1h-12.07c-5.43,0-9.81,.65-13.14,1.96-3.34,1.31-5.78,3.16-7.31,5.54-1.54,2.39-2.31,5.12-2.31,8.19s.8,5.73,2.41,8.15c1.6,2.42,3.87,4.33,6.81,5.74,2.95,1.4,6.45,2.1,10.5,2.1,4.64,0,8.44-.89,11.38-2.69,1.99-1.22,3.57-2.77,4.71-4.67v6.58h14.32v-30.12c0-8.04-2.22-13.96-6.67-17.75Zm-13,36.59c-2.06,1.17-4.4,1.76-7.01,1.76s-4.69-.57-6.23-1.71c-1.54-1.15-2.3-2.7-2.3-4.66,0-1.77,.67-3.24,2.01-4.42,1.34-1.17,3.8-1.76,7.4-1.76h10.5v5.39c-.85,2.42-2.31,4.22-4.37,5.4Z"/><path class="cls-5" d="M253.98,46.99v30.21h-15.31v-27.86c0-4.25-.93-7.39-2.79-9.42-1.87-2.02-4.5-3.04-7.9-3.04-2.42,0-4.59,.53-6.52,1.57-1.93,1.05-3.44,2.58-4.52,4.61-1.07,2.03-1.61,4.71-1.61,8.05v26.09h-15.31V24.42h14.62v6.28c1.51-1.69,3.31-3.1,5.39-4.22,3.54-1.89,7.56-2.84,12.07-2.84,4.19,0,7.93,.83,11.23,2.5,3.31,1.67,5.9,4.22,7.8,7.65,1.9,3.43,2.85,7.83,2.85,13.2Z"/><path class="cls-2" d="M319.31,78.38c-5.49,0-10.78-.74-15.84-2.21-5.07-1.47-9.14-3.38-12.21-5.74l5.4-11.97c2.88,2.09,6.34,3.81,10.4,5.15,4.05,1.34,8.14,2.01,12.26,2.01,3.14,0,5.67-.33,7.6-.98,1.93-.65,3.35-1.52,4.27-2.6,.92-1.08,1.37-2.34,1.37-3.78,0-1.83-.72-3.29-2.16-4.37s-3.35-1.96-5.74-2.65c-2.39-.69-4.99-1.34-7.8-1.96-2.81-.62-5.64-1.37-8.49-2.26s-5.46-2.06-7.85-3.53c-2.39-1.47-4.28-3.4-5.69-5.79-1.41-2.39-2.11-5.38-2.11-8.98,0-3.92,1.05-7.5,3.14-10.74,2.09-3.24,5.28-5.82,9.56-7.75,4.28-1.93,9.66-2.89,16.14-2.89,4.32,0,8.58,.52,12.8,1.57,4.22,1.05,7.9,2.55,11.04,4.51l-5,11.97c-3.08-1.77-6.25-3.09-9.52-3.97-3.27-.88-6.41-1.32-9.42-1.32s-5.66,.34-7.55,1.03c-1.9,.69-3.29,1.62-4.17,2.8s-1.32,2.49-1.32,3.92c0,1.83,.72,3.3,2.16,4.42,1.44,1.11,3.33,1.98,5.69,2.6,2.35,.62,4.97,1.24,7.85,1.86,2.88,.62,5.72,1.39,8.54,2.31,2.81,.92,5.4,2.08,7.75,3.48,2.35,1.41,4.27,3.3,5.74,5.69,1.47,2.39,2.21,5.35,2.21,8.88,0,3.86-1.06,7.39-3.19,10.59-2.13,3.21-5.35,5.79-9.66,7.75s-9.71,2.94-16.19,2.94Z"/><path class="cls-6" d="M412.11,46.99v30.21h-15.3v-27.86c0-4.25-.94-7.39-2.8-9.42-1.86-2.02-4.5-3.04-7.9-3.04-2.42,0-4.59,.53-6.52,1.57-1.93,1.05-3.43,2.58-4.51,4.61-1.08,2.03-1.62,4.71-1.62,8.05v26.09h-15.3V4.41h15.3V29.96c1.37-1.37,2.94-2.53,4.71-3.48,3.53-1.89,7.55-2.84,12.06-2.84,4.19,0,7.93,.83,11.24,2.5,3.3,1.67,5.9,4.22,7.8,7.65,1.89,3.43,2.84,7.83,2.84,13.2Z"/><path class="cls-11" d="M458.71,23.64v14.22c-.59-.13-1.17-.23-1.72-.29-.56-.07-1.1-.1-1.62-.1-4.32,0-7.75,1.21-10.3,3.63-2.55,2.42-3.83,6.15-3.83,11.18v24.92h-15.3V24.42h14.62v6.92c1.44-1.97,3.27-3.57,5.49-4.81,3.47-1.93,7.68-2.89,12.66-2.89Z"/><path class="cls-7" d="M515.41,36.39c-2.42-4.05-5.71-7.19-9.86-9.42-4.15-2.22-8.81-3.33-13.98-3.33s-10.19,1.16-14.47,3.48c-4.28,2.32-7.62,5.54-10.01,9.66-2.38,4.12-3.58,8.8-3.58,14.03s1.25,9.89,3.73,13.98c2.49,4.09,5.99,7.31,10.5,9.66,4.51,2.36,9.77,3.53,15.79,3.53,4.78,0,8.99-.73,12.66-2.2,3.66-1.47,6.7-3.58,9.12-6.33l-8.14-8.83c-1.77,1.7-3.71,2.98-5.84,3.83-2.12,.85-4.56,1.27-7.31,1.27-3.2,0-5.95-.57-8.24-1.71-2.29-1.15-4.09-2.8-5.39-4.96-.72-1.19-1.24-2.49-1.56-3.92h39.91c.07-.66,.13-1.36,.2-2.11,.06-.75,.1-1.42,.1-2.01,0-5.69-1.21-10.56-3.63-14.62Zm-36.77,9.81c.25-1.65,.73-3.13,1.45-4.46,1.11-2.06,2.67-3.66,4.66-4.81,2-1.14,4.3-1.72,6.92-1.72s4.9,.58,6.87,1.72c1.96,1.15,3.49,2.73,4.61,4.76,.73,1.35,1.21,2.85,1.42,4.51h-25.93Z"/><path class="cls-4" d="M547,77.99c-4.51,0-8.83-.54-12.95-1.62s-7.42-2.44-9.91-4.07l5-10.89c2.48,1.44,5.38,2.63,8.68,3.58,3.3,.95,6.56,1.42,9.76,1.42,3.53,0,6.03-.42,7.5-1.28,1.47-.85,2.21-2.03,2.21-3.53,0-1.24-.57-2.17-1.72-2.8-1.14-.62-2.65-1.09-4.51-1.42-1.86-.33-3.94-.65-6.23-.98-2.29-.33-4.56-.79-6.82-1.37-2.26-.59-4.35-1.42-6.28-2.5-1.93-1.08-3.47-2.57-4.61-4.46-1.15-1.9-1.72-4.35-1.72-7.36,0-3.33,.98-6.29,2.94-8.88,1.96-2.58,4.74-4.59,8.34-6.03,3.6-1.44,7.95-2.16,13.05-2.16,3.66,0,7.34,.41,11.04,1.23,3.69,.82,6.82,1.95,9.37,3.38l-5.2,10.89c-2.49-1.44-5.02-2.45-7.6-3.04-2.58-.59-5.05-.88-7.41-.88-3.53,0-6.08,.46-7.65,1.37-1.57,.92-2.35,2.09-2.35,3.53,0,1.31,.59,2.3,1.77,2.99,1.18,.69,2.71,1.19,4.61,1.52,1.9,.33,3.99,.65,6.28,.98,2.29,.33,4.54,.79,6.77,1.37,2.22,.59,4.3,1.42,6.23,2.5,1.93,1.08,3.47,2.57,4.61,4.46,1.14,1.9,1.72,4.35,1.72,7.36,0,3.21-.98,6.07-2.94,8.58-1.96,2.52-4.79,4.5-8.49,5.94-3.7,1.44-8.19,2.16-13.49,2.16Z"/><path class="cls-3" d="M615.27,74.65c-1.5,1.11-3.35,1.95-5.54,2.5-2.19,.56-4.46,.83-6.82,.83-6.21,0-11.05-1.58-14.52-4.75-3.46-3.18-5.2-7.9-5.2-14.18v-21.68h-8.14v-11.77h8.14V12.75h15.4v12.85h13.05v11.77h-13.05v21.39c0,2.22,.58,3.95,1.72,5.2,1.14,1.24,2.7,1.86,4.66,1.86,2.49,0,4.58-.65,6.28-1.96l4.02,10.79Z"/><path class="cls-12" d="M677.96,46.99v30.21h-15.31v-27.86c0-4.25-.93-7.39-2.79-9.42-1.87-2.02-4.5-3.04-7.9-3.04-2.42,0-4.6,.53-6.52,1.57-1.93,1.05-3.44,2.58-4.52,4.61-1.07,2.03-1.61,4.71-1.61,8.05v26.09h-15.31V4.41h15.31V29.96c1.36-1.37,2.93-2.53,4.7-3.48,3.54-1.89,7.56-2.84,12.07-2.84,4.19,0,7.93,.83,11.23,2.5s5.9,4.22,7.8,7.65c1.9,3.43,2.85,7.83,2.85,13.2Z"/><path class="cls-13" d="M731.81,29.33c-4.45-3.79-10.69-5.69-18.74-5.69-4.18,0-8.3,.54-12.36,1.62-4.05,1.08-7.52,2.66-10.39,4.75l5.39,10.7c1.96-1.51,4.3-2.7,7.02-3.58,2.71-.89,5.47-1.33,8.28-1.33,4.12,0,7.18,.92,9.18,2.75,1.99,1.83,2.99,4.38,2.99,7.65v.1h-12.07c-5.43,0-9.81,.65-13.14,1.96-3.34,1.31-5.78,3.16-7.31,5.54-1.54,2.39-2.31,5.12-2.31,8.19s.8,5.73,2.41,8.15c1.6,2.42,3.87,4.33,6.81,5.74,2.95,1.4,6.45,2.1,10.5,2.1,4.64,0,8.44-.89,11.38-2.69,1.99-1.22,3.56-2.77,4.71-4.66v6.57h14.32v-30.12c0-8.04-2.22-13.96-6.67-17.75Zm-13,36.59c-2.06,1.17-4.4,1.76-7.01,1.76s-4.69-.57-6.23-1.71c-1.54-1.15-2.3-2.7-2.3-4.66,0-1.77,.67-3.24,2.01-4.42,1.34-1.17,3.8-1.76,7.4-1.76h10.5v5.39c-.85,2.42-2.31,4.22-4.37,5.4Z"/></g></g></svg>