<?xml version="1.0" encoding="UTF-8"?><svg id="Layer_2" xmlns="http://www.w3.org/2000/svg" viewBox="0 0 1922.69 44.66"><defs><style>.cls-1{fill:#bf8f32;}</style></defs><g id="Layer_1-2"><g><path class="cls-1" d="M1922.69,1.97c-204.41,.98-483.56,1.59-687.91,1.78,0,0-229.3,.17-229.3,.17,0,0,1.33-.52,1.33-.52l-43.79,40.73s-.57,.53-.57,.53c-.65,0-1.54,0-2.18,0,0,0-.57-.53-.57-.53L915.89,3.4c6.87,1.45-229.4-.12-227.97,.35C483.75,3.57,204.18,2.95,0,1.97,204.41,.99,483.56,.37,687.91,.18c.77,0,229.36-.17,230.07-.17,0,0,.57,.52,.57,.52l43.85,40.67-1.36-.53s.61,0,.61,0c0,0-1.36,.53-1.36,.53L1004.15,.54l.56-.52c1.02-.09,229.07,.23,230.07,.17,204.16,.19,483.74,.81,687.91,1.78h0Z"/><path class="cls-1" d="M1921.73,11.1c-297.13,1.44-651.07,1.83-948.17,1.98,0,0,1.4-.58,1.4-.58l-12.2,12.22-.58,.58s-.83,0-.83,0c0,0-.09,0-.09,0h-.83s-.59-.59-.59-.59l-12.2-12.21s1.41,.58,1.41,.58c-297.03-.16-651.15-.53-948.17-1.99,297.13-1.46,651.07-1.83,948.17-1.99,0,0,.82,0,.82,0l.58,.58,12.21,12.2-1.41-.59s.09,0,.09,0l-1.41,.59,12.22-12.2,.58-.58h.82c297.03,.16,651.15,.54,948.17,1.99h0Z"/></g></g></svg>