<?xml version="1.0" encoding="UTF-8"?>
<svg  version="1.1" viewBox="0 0 1200 1200" xmlns="http://www.w3.org/2000/svg">
 <path d="m52.199 1177.4h1095.6c10.703-0.12891 20.93-4.4688 28.453-12.086 7.5273-7.6133 11.746-17.891 11.746-28.594 0-206.4-260.28-288.72-372-314.64-1.3477-0.37891-2.2773-1.6016-2.2812-3v-21.242c-12.594-5.6875-23.535-14.484-31.797-25.559-12.074-16.094-17.645-36.145-15.602-56.16l-3.9609 5.7617c-26.465 38.836-64.137 68.684-108 85.559-35.238 12.531-73.719 12.531-108.96 0-44.457-16.391-82.598-46.426-108.96-85.801-21.105-30.125-35.285-64.547-41.52-100.8-0.55469-3.5508-3.4961-6.2422-7.082-6.4805-4.1992 0-19.199-6.4805-37.559-72-14.398-50.879-8.2812-69.359-3.4805-75.84 3.4219-4.3281 8.7773-6.668 14.277-6.2383h3.4805c4.2031 0.27344 7.8398-2.8828 8.1602-7.082 0-1.0781 9-110.76 74.039-150.24 32.52-19.801 74.16-18.961 123.84 2.1602h0.003906c19.988 8.5898 40.512 15.887 61.438 21.84 22.082-42.941 55.57-78.965 96.785-104.11 41.219-25.152 88.57-38.453 136.86-38.445h28.441c-17.328-39.051-45.426-72.348-81-96 15.324-15.625 23.641-36.805 23.039-58.68-0.14062-2.1055-1.1367-4.0547-2.7617-5.4023-1.5898-1.0586-3.5-1.5234-5.3984-1.3203-1.6797 0-165.24 18.602-244.08 2.2812-81.121-16.68-170.04 44.758-187.92 107.64-30.547 3.9844-58.344 19.691-77.52 43.801-36 44.039-46.68 114.12-32.52 208.2 0.96094 12 2.3984 24 4.5586 36l-1.4414 1.8008c-31.32 41.52-19.922 99.602-8.5195 139.68 6.9609 24.719 19.922 70.441 49.199 99.359h0.003907c5.7539 20.738 13.594 40.84 23.398 60 9.5352 18.844 20.738 36.797 33.48 53.641v43.68c0.039063 1.4102-0.91016 2.6602-2.2812 3-111.96 25.801-372 108-372 314.64 0 10.645 4.168 20.863 11.617 28.469 7.4492 7.6055 17.582 11.988 28.223 12.211zm410.16-330.24c18.336 11.922 38.035 21.59 58.68 28.801 51.09 18.082 106.83 18.082 157.92 0 20.613-7.4961 40.27-17.406 58.559-29.52 6.6914 19.562 20.367 35.969 38.402 46.078-20.234 27.555-46.75 49.875-77.348 65.113-30.602 15.238-64.395 22.945-98.574 22.488-34.168 0.47266-67.957-7.2188-98.555-22.434-30.598-15.215-57.121-37.516-77.367-65.047 17.879-9.9883 31.492-26.16 38.281-45.48zm528.84-597.48h-125.52c-52.289 0-102.44 20.773-139.41 57.75-36.973 36.973-57.746 87.121-57.746 139.41 0 47.238 16.957 92.91 47.789 128.7 30.836 35.785 73.492 59.316 120.21 66.301 4.3594 26.047 2.8398 52.738-4.4414 78.121-1.1602 3.9727-0.72266 8.2383 1.2227 11.891 1.9414 3.6523 5.2383 6.4023 9.1836 7.6523 3.9414 1.2539 8.2188 0.91797 11.914-0.94141 32.762-16.559 79.199-47.039 104.04-94.199l32.762-0.003906c34.609-0.0625 68.594-9.2344 98.531-26.594 29.941-17.359 54.785-42.293 72.035-72.297 17.25-30.004 26.297-64.02 26.234-98.629 0-52.227-20.723-102.32-57.621-139.29-36.895-36.965-86.953-57.777-139.18-57.875zm32.039 284.52h-124.8c-6.8164 0-13.117-3.6367-16.523-9.5391-3.4102-5.9023-3.4102-13.176 0-19.078 3.4062-5.9062 9.707-9.543 16.523-9.543h124.92c6.8164 0 13.117 3.6367 16.523 9.543 3.4102 5.9023 3.4102 13.176 0 19.078-3.4062 5.9023-9.707 9.5391-16.523 9.5391zm0-68.281-189.6 0.003907c-6.8164 0-13.117-3.6367-16.523-9.5391-3.4102-5.9062-3.4102-13.18 0-19.082 3.4062-5.9023 9.707-9.5391 16.523-9.5391h189.72c6.8164 0 13.117 3.6367 16.523 9.5391 3.4102 5.9023 3.4102 13.176 0 19.082-3.4062 5.9023-9.707 9.5391-16.523 9.5391zm0-68.281-189.6 0.003907c-6.8164 0-13.117-3.6367-16.523-9.5391-3.4102-5.9023-3.4102-13.176 0-19.082 3.4062-5.9023 9.707-9.5391 16.523-9.5391h189.72c6.8164 0 13.117 3.6367 16.523 9.5391 3.4102 5.9062 3.4102 13.18 0 19.082-3.4062 5.9023-9.707 9.5391-16.523 9.5391z"/>
</svg>
