<?xml version="1.0" encoding="UTF-8"?>
<svg width="1200pt" height="1200pt" version="1.1" viewBox="0 0 1200 1200" xmlns="http://www.w3.org/2000/svg">
 <g>
  <path d="m841 125h-516c-33.152 0-64.945 13.168-88.387 36.613-23.445 23.441-36.613 55.234-36.613 88.387v825h693.25c28.379-0.066406 55.566-11.402 75.586-31.516 20.02-20.113 31.23-47.355 31.164-75.734v-651.75zm-345.5 797c5.3711 0.042969 10.711-0.89062 15.75-2.75l13.75-6.75 9.25 35-9.25 4.5c-10.195 4.2852-21.195 6.332-32.25 6-16.969 0.82422-33.484-5.6445-45.379-17.777-11.895-12.133-18.035-28.773-16.871-45.723-0.9375-17.621 5.6211-34.816 18.051-47.34 12.43-12.523 29.574-19.211 47.199-18.41 10.25-0.375 20.445 1.6797 29.75 6l9 4.75-9.5 35.5-13.25-6.5c-4.6016-2.1758-9.6641-3.207-14.75-3-17.5 0-27 10.5-27 29.25-0.64453 7.0977 1.7734 14.133 6.6445 19.34 4.8711 5.2031 11.73 8.082 18.855 7.9102zm91 36c-11.395 0.085938-22.609-2.8477-32.5-8.5l-7.75-5.25 10.5-35.25 14 8.5c6.75 4.25 25 6.75 25 0 0-2 0-4.25-11-8.5-22.5-9-34.75-21.75-34.75-40.25 0.36719-11.426 5.4297-22.195 13.992-29.766 8.5664-7.5703 19.875-11.273 31.258-10.234 9.8398-0.20312 19.566 2.1211 28.25 6.75l9 5-11 34.5-13.25-7c-3.957-2.2461-8.4531-3.3711-13-3.25-3.25 0-6.75 0-6.75 2.5s0 3.25 12.25 7.75c9.3633 2.3242 17.719 7.6289 23.805 15.113 6.0898 7.4844 9.5781 16.746 9.9453 26.387-0.33984 12.062-5.7305 23.43-14.859 31.32-9.1289 7.8945-21.156 11.586-33.141 10.18zm104 0c-11.426 0.20312-22.707-2.5547-32.75-8l-7.5-5.25 10.5-35.25 14 8.5c6.75 4.25 25 6.75 25 0 0-2 0-4.25-11-8.5-22.75-8-34.5-21.75-34.5-40.25 0.37109-11.379 5.3984-22.105 13.906-29.668s19.75-11.297 31.094-10.332c9.918-0.20312 19.727 2.1211 28.5 6.75l9 5-11.75 34-13.25-7c-4.0664-2.1992-8.6289-3.3203-13.25-3.25-3.25 0-6.5 0-6.5 2.5s0 3.25 12.25 7.75c9.3633 2.3242 17.719 7.6289 23.805 15.113 6.0898 7.4844 9.5781 16.746 9.9453 26.387-0.35156 11.965-5.6758 23.242-14.691 31.121-9.0117 7.875-20.902 11.637-32.809 10.379zm259.5-177.75h-214.75l-28.5-80.25h-456.75v-450c0-19.891 7.9023-38.969 21.969-53.031 14.062-14.066 33.141-21.969 53.031-21.969h475v175l50 1.25v-137.25l72 86h-22v50h50z"/>
  <path d="m357.75 387.5h484.5v50h-484.5z"/>
  <path d="m357.75 525h274.5v50h-274.5z"/>
 </g>
</svg>
