<svg width="1200pt" height="1200pt" version="1.1" viewBox="0 0 1200 1200" xmlns="http://www.w3.org/2000/svg">
 <path d="m600 1125c-7.0195 0.023438-13.906-1.9258-19.875-5.625l-300-187.5c-9.5469-5.8047-16.012-15.566-17.625-26.625l-112.5-787.5c-1.6211-10.777 1.5273-21.73 8.625-30 7.2812-8.293 17.844-12.953 28.875-12.75h825c10.902-0.09375 21.305 4.5586 28.5 12.75 7.0977 8.2695 10.246 19.223 8.625 30l-112.5 787.5c-1.5273 10.988-7.8438 20.738-17.25 26.625l-300 187.5c-5.9688 3.6992-12.855 5.6484-19.875 5.625zm-265.5-247.5 265.5 165.75 265.5-165.75 103.88-727.5h-738.75zm282.38 18.375 150-75c11.137-5.6523 18.73-16.477 20.25-28.875l37.5-300c1.2969-10.586-1.9766-21.223-9-29.25-7.1094-8.0938-17.355-12.738-28.125-12.75h-343.12l-25.125-150h405.75c13.398 0 25.777-7.1484 32.477-18.75 6.6992-11.602 6.6992-25.898 0-37.5-6.6992-11.602-19.078-18.75-32.477-18.75h-450c-11.078-0.14453-21.652 4.6211-28.887 13.012s-10.387 19.551-8.6133 30.488l37.5 225c1.4375 8.875 6.0156 16.934 12.898 22.719 6.8828 5.7812 15.613 8.8984 24.602 8.7812h332.62l-30 237.75-115.12 57.75-112.5-56.25v-89.25c0-13.398-7.1484-25.777-18.75-32.477-11.602-6.6992-25.898-6.6992-37.5 0-11.602 6.6992-18.75 19.078-18.75 32.477v112.5c0.019531 6.9258 1.9609 13.711 5.6016 19.602 3.6367 5.8906 8.8398 10.656 15.023 13.773l150 75c10.613 5.3477 23.137 5.3477 33.75 0z"/>
</svg>
