<?xml version="1.0" encoding="UTF-8"?>
<svg width="1200pt" height="1200pt" version="1.1" viewBox="0 0 1200 1200" xmlns="http://www.w3.org/2000/svg">
 <g>
  <path d="m187.5 1031.2c0.027344 24.855 9.9141 48.684 27.488 66.262 17.578 17.574 41.406 27.461 66.262 27.488h637.5c24.855-0.027344 48.684-9.9141 66.262-27.488 17.574-17.578 27.461-41.406 27.488-66.262v-168.75h-825zm487.5-18.75c-20.098 0-38.664-10.723-48.715-28.125-10.047-17.402-10.047-38.848 0-56.25 10.051-17.402 28.617-28.125 48.715-28.125h37.5c6.6992 0 12.887 3.5742 16.238 9.375 3.3477 5.8008 3.3477 12.949 0 18.75-3.3516 5.8008-9.5391 9.375-16.238 9.375h-37.5c-6.6992 0-12.887 3.5742-16.238 9.375-3.3477 5.8008-3.3477 12.949 0 18.75 3.3516 5.8008 9.5391 9.375 16.238 9.375 20.098 0 38.664 10.723 48.715 28.125 10.047 17.402 10.047 38.848 0 56.25-10.051 17.402-28.617 28.125-48.715 28.125h-37.5c-6.6992 0-12.887-3.5742-16.238-9.375-3.3477-5.8008-3.3477-12.949 0-18.75 3.3516-5.8008 9.5391-9.375 16.238-9.375h37.5c6.6992 0 12.887-3.5742 16.238-9.375 3.3477-5.8008 3.3477-12.949 0-18.75-3.3516-5.8008-9.5391-9.375-16.238-9.375zm-187.5 0c4.9727 0 9.7422 1.9766 13.258 5.4922 3.5156 3.5156 5.4922 8.2852 5.4922 13.258 0 6.6992 3.5742 12.887 9.375 16.238 5.8008 3.3477 12.949 3.3477 18.75 0 5.8008-3.3516 9.375-9.5391 9.375-16.238v-112.5c0-6.6992 3.5742-12.887 9.375-16.238 5.8008-3.3477 12.949-3.3477 18.75 0 5.8008 3.3516 9.375 9.5391 9.375 16.238v112.5c0 20.098-10.723 38.664-28.125 48.715-17.402 10.047-38.848 10.047-56.25 0-17.402-10.051-28.125-28.617-28.125-48.715 0-4.9727 1.9766-9.7422 5.4922-13.258 3.5156-3.5156 8.2852-5.4922 13.258-5.4922z"/>
  <path d="m918.75 262.5h67.234l-160.98-160.98v67.234c0.027344 24.855 9.9141 48.684 27.488 66.262 17.578 17.574 41.406 27.461 66.262 27.488z"/>
  <path d="m787.5 168.75v-93.75h-506.25c-24.855 0.027344-48.684 9.9141-66.262 27.488-17.574 17.578-27.461 41.406-27.488 66.262v656.25h825v-525h-93.75c-34.797-0.039062-68.16-13.879-92.766-38.484s-38.445-57.969-38.484-92.766zm-375 375v75c0.003906 4.9727 1.9844 9.7383 5.4961 13.254 3.5156 3.5117 8.2812 5.4922 13.254 5.4961 6.6992 0 12.887 3.5742 16.238 9.375 3.3477 5.8008 3.3477 12.949 0 18.75-3.3516 5.8008-9.5391 9.375-16.238 9.375-14.914-0.015625-29.211-5.9492-39.754-16.496-10.547-10.543-16.48-24.84-16.496-39.754v-75c-0.003906-4.9727-1.9844-9.7383-5.4961-13.254-3.5156-3.5117-8.2812-5.4922-13.254-5.4961-6.6992 0-12.887-3.5742-16.238-9.375-3.3477-5.8008-3.3477-12.949 0-18.75 3.3516-5.8008 9.5391-9.375 16.238-9.375 4.9727-0.003906 9.7383-1.9844 13.254-5.4961 3.5117-3.5156 5.4922-8.2812 5.4961-13.254v-75c0.015625-14.914 5.9492-29.211 16.496-39.754 10.543-10.547 24.84-16.48 39.754-16.496 6.6992 0 12.887 3.5742 16.238 9.375 3.3477 5.8008 3.3477 12.949 0 18.75-3.3516 5.8008-9.5391 9.375-16.238 9.375-4.9727 0.003906-9.7383 1.9844-13.254 5.4961-3.5117 3.5156-5.4922 8.2812-5.4961 13.254v75c0.011719 13.844-5.1016 27.203-14.359 37.5 9.2578 10.297 14.371 23.656 14.359 37.5zm112.5-18.75c-4.9727 0-9.7422-1.9766-13.258-5.4922-3.5156-3.5156-5.4922-8.2852-5.4922-13.258s1.9766-9.7422 5.4922-13.258c3.5156-3.5156 8.2852-5.4922 13.258-5.4922s9.7422 1.9766 13.258 5.4922c3.5156 3.5156 5.4922 8.2852 5.4922 13.258s-1.9766 9.7422-5.4922 13.258c-3.5156 3.5156-8.2852 5.4922-13.258 5.4922zm75 0c-4.9727 0-9.7422-1.9766-13.258-5.4922-3.5156-3.5156-5.4922-8.2852-5.4922-13.258s1.9766-9.7422 5.4922-13.258c3.5156-3.5156 8.2852-5.4922 13.258-5.4922s9.7422 1.9766 13.258 5.4922c3.5156 3.5156 5.4922 8.2852 5.4922 13.258s-1.9766 9.7422-5.4922 13.258c-3.5156 3.5156-8.2852 5.4922-13.258 5.4922zm75 0c-4.9727 0-9.7422-1.9766-13.258-5.4922-3.5156-3.5156-5.4922-8.2852-5.4922-13.258s1.9766-9.7422 5.4922-13.258c3.5156-3.5156 8.2852-5.4922 13.258-5.4922s9.7422 1.9766 13.258 5.4922c3.5156 3.5156 5.4922 8.2852 5.4922 13.258s-1.9766 9.7422-5.4922 13.258c-3.5156 3.5156-8.2852 5.4922-13.258 5.4922zm168.75 0c-4.9727 0.003906-9.7383 1.9844-13.254 5.4961-3.5117 3.5156-5.4922 8.2812-5.4961 13.254v75c-0.015625 14.914-5.9492 29.211-16.496 39.754-10.543 10.547-24.84 16.48-39.754 16.496-6.6992 0-12.887-3.5742-16.238-9.375-3.3477-5.8008-3.3477-12.949 0-18.75 3.3516-5.8008 9.5391-9.375 16.238-9.375 4.9727-0.003906 9.7383-1.9844 13.254-5.4961 3.5117-3.5156 5.4922-8.2812 5.4961-13.254v-75c-0.011719-13.844 5.1016-27.203 14.359-37.5-9.2578-10.297-14.371-23.656-14.359-37.5v-75c-0.003906-4.9727-1.9844-9.7383-5.4961-13.254-3.5156-3.5117-8.2812-5.4922-13.254-5.4961-6.6992 0-12.887-3.5742-16.238-9.375-3.3477-5.8008-3.3477-12.949 0-18.75 3.3516-5.8008 9.5391-9.375 16.238-9.375 14.914 0.015625 29.211 5.9492 39.754 16.496 10.547 10.543 16.48 24.84 16.496 39.754v75c0.003906 4.9727 1.9844 9.7383 5.4961 13.254 3.5156 3.5117 8.2812 5.4922 13.254 5.4961 6.6992 0 12.887 3.5742 16.238 9.375 3.3477 5.8008 3.3477 12.949 0 18.75-3.3516 5.8008-9.5391 9.375-16.238 9.375z"/>
 </g>
</svg>
