<?xml version="1.0" encoding="UTF-8"?>
<svg width="1200pt" height="1200pt" version="1.1" viewBox="0 0 1200 1200" xmlns="http://www.w3.org/2000/svg">
 <g>
  <path d="m1198.1 946.88v-114.38c0-26.25-20.625-46.875-46.875-46.875h-547.5c-26.25 0-46.875 20.625-46.875 46.875v114.38c0 22.5 16.875 43.125 39.375 46.875-22.5 3.75-39.375 22.5-39.375 45v114.38c0 26.25 20.625 46.875 46.875 46.875h547.5c26.25 0 46.875-20.625 46.875-46.875v-114.38c0-22.5-16.875-41.25-39.375-45 22.5-5.625 39.375-24.375 39.375-46.875zm-549.38 174.38c-13.125 0-26.25-11.25-26.25-26.25 0-13.125 11.25-26.25 26.25-26.25s26.25 11.25 26.25 26.25c-1.875 15-13.125 26.25-26.25 26.25zm0-206.25c-13.125 0-26.25-11.25-26.25-26.25 0-13.125 11.25-26.25 26.25-26.25s26.25 11.25 26.25 26.25c-1.875 13.125-13.125 26.25-26.25 26.25zm84.375 206.25c-15 0-26.25-11.25-26.25-26.25 0-13.125 11.25-26.25 26.25-26.25s26.25 11.25 26.25 26.25-11.25 26.25-26.25 26.25zm0-206.25c-15 0-26.25-11.25-26.25-26.25 0-13.125 11.25-26.25 26.25-26.25s26.25 11.25 26.25 26.25c0 13.125-11.25 26.25-26.25 26.25zm371.25 206.25h-232.5c-15 0-26.25-11.25-26.25-26.25s11.25-26.25 26.25-26.25h232.5c15 0 26.25 11.25 26.25 26.25s-11.25 26.25-26.25 26.25zm0-206.25h-232.5c-15 0-26.25-11.25-26.25-26.25s11.25-26.25 26.25-26.25h232.5c15 0 26.25 11.25 26.25 26.25s-11.25 26.25-26.25 26.25z"/>
  <path d="m517.5 937.5c-43.125 9.375-97.5 15-161.25 15-183.75 0-285-48.75-290.62-69.375v-165c69.375 33.75 183.75 50.625 290.62 50.625 108.75 0 223.12-16.875 290.62-54.375v30h63.75v-112.5-3.75-243.75-3.75-245.62c0-93.75-183.75-135-354.38-135s-354.38 43.125-354.38 135v1.875 241.88 7.5 241.88 7.5 241.88c0 91.875 183.75 135 354.38 135 58.125 0 118.12-5.625 170.62-15 1.875-1.875 1.875-5.625 3.75-7.5-9.375-13.125-13.125-30-13.125-46.875zm-451.88-721.88c69.375 35.625 181.88 54.375 290.62 54.375 106.88 0 221.25-16.875 288.75-52.5h1.875v163.12c0 20.625-101.25 71.25-290.62 71.25-183.75 0-285-48.75-290.62-69.375zm0 249.38c69.375 37.5 183.75 54.375 290.62 54.375 108.75 0 223.12-16.875 290.62-54.375v163.12c0 20.625-101.25 71.25-290.62 71.25-183.75 0-285-48.75-290.62-69.375z"/>
  <path d="m288.75 356.25c0 16.57-13.43 30-30 30s-30-13.43-30-30 13.43-30 30-30 30 13.43 30 30"/>
  <path d="m386.25 356.25c0 16.57-13.43 30-30 30s-30-13.43-30-30 13.43-30 30-30 30 13.43 30 30"/>
  <path d="m483.75 356.25c0 16.57-13.43 30-30 30s-30-13.43-30-30 13.43-30 30-30 30 13.43 30 30"/>
  <path d="m288.75 607.5c0 16.57-13.43 30-30 30s-30-13.43-30-30 13.43-30 30-30 30 13.43 30 30"/>
  <path d="m386.25 607.5c0 16.57-13.43 30-30 30s-30-13.43-30-30 13.43-30 30-30 30 13.43 30 30"/>
  <path d="m483.75 607.5c0 16.57-13.43 30-30 30s-30-13.43-30-30 13.43-30 30-30 30 13.43 30 30"/>
  <path d="m288.75 858.75c0 16.57-13.43 30-30 30s-30-13.43-30-30 13.43-30 30-30 30 13.43 30 30"/>
  <path d="m386.25 858.75c0 16.57-13.43 30-30 30s-30-13.43-30-30 13.43-30 30-30 30 13.43 30 30"/>
  <path d="m483.75 858.75c0 16.57-13.43 30-30 30s-30-13.43-30-30 13.43-30 30-30 30 13.43 30 30"/>
 </g>
</svg>
