<?xml version="1.0" encoding="UTF-8"?>
<svg width="1200pt" height="1200pt" version="1.1" viewBox="0 0 1200 1200" xmlns="http://www.w3.org/2000/svg">
 <g>
  <path d="m805.3 693.56c-7.4492-4.8516-19.941-7.2852-37.488-7.2852h-15.855v65.961h14.062c33.648 0 50.461-11.414 50.461-34.262 0-11.414-3.7461-19.531-11.18-24.414z"/>
  <path d="m404.13 693.56c-7.457-4.8516-19.941-7.2852-37.496-7.2852h-15.855v65.961h14.062c33.648 0 50.461-11.414 50.461-34.262-0.007812-11.414-3.7539-19.531-11.172-24.414z"/>
  <path d="m601.98 74.906c-288.4 0-522.2 233.8-522.2 522.2 0 288.39 233.8 522.2 522.2 522.2 288.39 0 522.2-233.8 522.2-522.2 0-288.4-233.81-522.2-522.2-522.2zm-154.24 685.99c-7.9336 13.223-18.141 22.234-30.617 27.035-9.8594 3.8438-26.922 5.7578-51.207 5.7578h-15.133v91.559h-44.688v-240.42h60.543c17.785 0 30.395 0.73047 37.875 2.168 12.234 2.6484 23.168 8.4219 32.77 17.309 14.902 13.945 22.367 31.715 22.367 53.336-0.003906 15.617-3.9844 30.047-11.91 43.254zm215.56 124.36h-44.711v-100.92h-85.766v100.92h-44.711v-240.42h44.711v98.047h85.773v-98.047h44.711v240.42zm185.62-124.36c-7.9336 13.223-18.141 22.234-30.617 27.035-9.8594 3.8438-26.922 5.7578-51.207 5.7578h-15.133v91.559h-44.695v-240.42h60.547c17.773 0 30.395 0.73047 37.859 2.168 12.242 2.6484 23.184 8.4219 32.793 17.309 14.887 13.945 22.352 31.715 22.352 53.336 0 15.617-3.9648 30.047-11.898 43.254zm-234.11-616.36c244.18 6.8281 440.05 206.75 440.05 452.56 0 1.1211-0.066406 2.2188-0.10156 3.3398-231.45-34.98-412.98-221.89-439.95-455.9z"/>
 </g>
</svg>
