<?xml version="1.0" encoding="UTF-8"?>
<svg version="1.1" viewBox="0 0 1200 1200" xmlns="http://www.w3.org/2000/svg">
 <g>
  <path d="m920.4 692.4c-68.398 15.602-190.8 31.203-234 18-18-8.3984-62.398-57.602-86.398-84-22.801-25.199-44.398-48-64.801-67.199-34.801-34.801-62.398-58.801-112.8-72-61.199-15.602-214.8-33.602-258 68.398-45.602 106.8-38.398 385.2-36 583.2 0 16.801 10.801 31.199 28.801 31.199h327.6c20.398 0 27.602-10.801 28.801-26.398 1.1992-10.801 12-199.2 19.199-333.6 31.199 30 62.398 55.199 97.199 66 32.398 10.801 70.801 14.398 110.4 14.398 93.602 0 192-20.398 217.2-26.398 46.801-10.801 76.801-57.602 66-104.4-9.5977-47.996-56.398-77.996-103.2-67.199z"/>
  <path d="m553.2 229.2c0 110.02-89.184 199.2-199.2 199.2s-199.2-89.184-199.2-199.2 89.184-199.2 199.2-199.2 199.2 89.184 199.2 199.2"/>
  <path d="m1009.2 321.6c-7.1992-7.1992-7.1992-20.398 0-27.602 3.6016-3.6016 9.6016-6 14.398-6 15.602 0 31.199-7.1992 42-22.801 9.6016-15.602 9.6016-36 0-51.602-18-26.398-54-30-75.602-8.3984-9.6016 9.6016-14.398 21.602-14.398 34.801 0 6-2.3984 10.801-6 14.398-7.1992 7.1992-20.398 7.1992-27.602 0l-53.996-54c-9.6016-9.6016-24-9.6016-33.602 0l-54 54c-7.1992 7.1992-20.398 7.1992-28.801 0-3.6016-3.6016-6-9.6016-6-14.398 0-15.602-7.1992-32.398-22.801-42s-36-9.6016-51.602 0c-25.195 18-28.797 54-7.1953 75.602 9.6016 9.6016 21.602 14.398 34.801 14.398 6 0 10.801 2.3984 14.398 6 8.3984 8.3984 8.3984 20.398 0 28.801l-54 54c-9.6016 9.6016-9.6016 24 0 33.602l54 54c7.1992 7.1992 7.1992 20.398 0 28.801-3.6016 3.6016-9.6016 6-14.398 6-15.602 0-31.199 7.1992-42 22.801-9.6016 15.602-9.6016 36 0 51.602 18 26.398 54 30 75.602 8.3984 9.6016-9.6016 14.398-21.602 14.398-34.801 0-6 2.3984-10.801 6-14.398 8.3984-8.3984 20.398-8.3984 28.801 0l54 54c9.6016 9.6016 24 9.6016 33.602 0l60-60c2.3984-7.1992 1.1992-15.602-4.8008-21.602-3.6016-3.6016-9.6016-6-14.398-6-12 0-25.199-4.8008-34.801-14.398-21.602-21.602-19.199-57.602 8.3984-75.602 15.602-9.6016 36-9.6016 51.602 0s22.801 25.199 22.801 42c0 6 2.3984 10.801 6 14.398 6 6 14.398 7.1992 21.602 4.8008l60-60c9.6016-9.6016 9.6016-24 0-33.602z"/>
 </g>
</svg>
