<?xml version="1.0" encoding="UTF-8"?>
<svg width="1200pt" height="1200pt" version="1.1" viewBox="0 0 1200 1200" xmlns="http://www.w3.org/2000/svg">
 <g>
  <path d="m1113 302.85c-16.785-130.63-163.18-121.04-313.41-68.082-49.086-103.13-115.56-159.77-188.46-159.77-23.789 0.23047-47.152 6.3555-67.996 17.824-9.6016-6.9023-21.121-10.621-32.941-10.637-13.453 0.11719-26.434 4.9688-36.66 13.711-10.23 8.7383-17.047 20.801-19.262 34.07s0.32031 26.898 7.1562 38.484c-14.824 20.926-27.758 43.133-38.645 66.352-150.55-53.066-296.57-62.543-313.52 68.039-5.4141 75.32 51.379 183.08 156.09 297.36-53.539 54.453-90.02 116.97-121.54 161.71l0.003907 0.003907c-16.121 0.16016-31.422 7.1211-42.137 19.164s-15.848 28.051-14.133 44.082c1.7148 16.027 10.117 30.586 23.137 40.09-13.977 180.32 190.1 144.94 311.99 99.953 97.395 212.25 279.51 212.32 376.92 0.011719 25.414 9.3594 51.352 17.234 77.68 23.594 2.5 16.645 12.25 31.324 26.621 40.082 14.371 8.7617 31.887 10.699 47.824 5.2969 15.941-5.4023 28.668-17.59 34.75-33.281 68.164-2.8242 121.58-35.207 126.54-103.84 5.375-75.367-51.449-183-156.07-296.88 104.68-114.25 161.48-222.02 156.07-297.34zm-61.469-46.145c14.828 11.938 23.629 29.805 24.059 48.836 4.5859 63.766-49.242 162.88-144.45 267.31-19.547-20.109-40.609-40.34-62.879-60.383-5.8164-83.293-23.945-165.27-53.793-243.25 110.77-39.801 196.63-44.5 237.06-12.52zm-272 660.47c-45.211-18.52-89.176-39.945-131.62-64.141 50.641-31.363 99.434-65.617 146.14-102.59 11.793-9.4023 22.648-18.289 32.902-26.867v-0.003906c-7.4336 66.301-23.371 131.37-47.418 193.6zm-336.8 0c-24.047-62.227-39.984-127.29-47.414-193.59 10.273 8.5977 21.133 17.484 32.938 26.887 46.684 36.969 95.461 71.211 146.09 102.56-42.441 24.195-86.406 45.617-131.61 64.141zm0-634.34c45.176 18.574 89.121 40.008 131.57 64.168-50.621 31.434-99.395 65.738-146.09 102.75-11.711 9.3281-22.582 18.215-32.93 26.852l0.003906-0.003907c7.4219-66.359 23.367-131.49 47.441-193.77zm-91.859 350.67c-39.348-37.215-40.137-29.148 0.003907-66.855-0.82422 22.129-0.82031 44.734-0.003907 66.855zm100.71 87.613c-23.488-18.715-43.496-35.52-61.312-51.406l-0.003906 0.003907c-3.3398-46.402-3.3398-92.98 0-139.38 68.66-60.441 142.57-114.64 220.86-161.95 55.508 33.438 108.8 70.418 159.56 110.71 23.164 18.461 43.207 35.246 61.305 51.242 1.6055 22.707 2.5352 46.047 2.5352 69.672 0 23.605-0.92578 46.938-2.5352 69.719-17.707 15.781-37.738 32.613-61.27 51.367-50.766 40.242-104.07 77.164-159.59 110.54-55.504-33.367-108.8-70.277-159.55-110.51zm327.96-438.28h-0.003906c24.07 62.285 40.012 127.41 47.438 193.77-10.348-8.6367-21.227-17.531-32.957-26.879-46.688-37.004-95.453-71.301-146.07-102.73 42.457-24.16 86.406-45.594 131.59-64.168zm91.855 283.82c40.199 37.73 39.293 29.672-0.007812 66.859 0.81641-22.129 0.81641-44.738 0.003906-66.859zm-106.77-318.21h-0.003906c-52.891 21.824-104.18 47.344-153.49 76.371-49.266-29.008-100.52-54.512-153.36-76.328 9.2852-19.508 20.152-38.219 32.492-55.949 13.215 4.8633 27.762 4.6641 40.836-0.5625 13.074-5.2266 23.75-15.105 29.969-27.738 6.2227-12.633 7.543-27.121 3.7148-40.672 84.641-35.629 146.35 21.102 199.84 124.88zm-254.43-128.75c6.9219 0.10156 13.273 3.8516 16.703 9.8633s3.4297 13.391 0 19.398c-3.4297 6.0117-9.7812 9.7656-16.703 9.8672-6.9219-0.10156-13.273-3.8555-16.703-9.8672-3.4297-6.0078-3.4297-13.387 0-19.398s9.7812-9.7617 16.703-9.8633zm-363.53 185.85c11.57-96.004 138.41-78.828 261.12-36.32-29.852 77.984-47.98 159.96-53.801 243.26-22.309 20.078-43.367 40.305-62.871 60.371-95.223-104.47-149.03-203.55-144.45-267.31zm-2.8555 493.87c6.9219 0.10156 13.273 3.8516 16.707 9.8633 3.4336 6.0117 3.4336 13.391 0 19.402s-9.7852 9.7656-16.707 9.8633c-6.9219-0.097656-13.277-3.8516-16.711-9.8633-3.4297-6.0117-3.4297-13.391 0-19.402 3.4336-6.0117 9.7891-9.7617 16.711-9.8633zm26.867 143.85c-19.332-16.707-28.348-42.414-23.688-67.539 15.145-0.74219 29.359-7.5234 39.465-18.828 10.105-11.305 15.258-26.188 14.305-41.32-0.94922-15.133-7.9297-29.25-19.371-39.199 30.57-53.895 67.488-103.93 109.95-149.05 20.691 21.105 41.645 41.34 62.637 60.113h0.003907c5.8164 83.328 23.949 165.34 53.809 243.35-110.75 39.801-196.61 44.52-237.11 12.477zm440.45 144.24c-56.262 0-111.58-49.277-153.47-135.93h-0.003907c52.922-21.75 104.21-47.27 153.48-76.359 49.266 29.094 100.56 54.613 153.48 76.363-41.898 86.652-97.227 135.92-153.48 135.92zm322.33-87.801c-6.918-0.097657-13.273-3.8477-16.703-9.8594-3.4297-6.0117-3.4297-13.387 0-19.398 3.4297-6.0117 9.7852-9.7617 16.703-9.8594 6.9219 0.097657 13.273 3.8477 16.707 9.8594 3.4297 6.0117 3.4297 13.387 0 19.398-3.4336 6.0117-9.7852 9.7617-16.707 9.8594zm142.14-105.29c-3.7266 48.488-39.988 65.582-87.883 69.008h0.003906c-4.4688-14.098-14.242-25.906-27.258-32.93-13.016-7.0273-28.25-8.7188-42.488-4.7188s-26.363 13.379-33.812 26.156c-23.594-5.7812-46.855-12.848-69.676-21.168 29.855-78.004 47.98-160 53.789-243.32 21.031-18.824 41.969-39.039 62.668-60.141 95.32 104.25 149.2 203.27 144.66 267.11z"/>
  <path d="m600 487.16c-149.12 4.7422-149.09 220.96 0.003906 225.68 149.12-4.7383 149.09-220.96-0.003906-225.68zm0 188.18v0.003906c-26.758-0.23828-51.379-14.652-64.688-37.863-13.309-23.211-13.309-51.742 0-74.953 13.312-23.211 37.934-37.625 64.688-37.863 26.758 0.23828 51.379 14.652 64.688 37.863 13.309 23.211 13.309 51.742 0 74.953-13.309 23.211-37.93 37.625-64.688 37.863z"/>
 </g>
</svg>
