<?xml version="1.0" encoding="UTF-8"?>
<svg version="1.1" viewBox="0 0 1200 1200" xmlns="http://www.w3.org/2000/svg">
 <g>
  <path d="m600 618.84c78.781 0.4375 154.39 31.09 211.24 85.637 56.848 54.543 90.594 128.83 94.281 207.52 26.031 6.0625 52.605 9.5195 79.32 10.32 0-102.07-40.547-199.95-112.72-272.12-72.168-72.168-170.05-112.71-272.12-112.71s-199.95 40.547-272.12 112.71c-72.172 72.172-112.72 170.06-112.72 272.12 26.715-0.80078 53.289-4.2578 79.32-10.32 3.6602-78.707 37.395-153 94.25-207.56 56.852-54.551 132.48-85.195 211.27-85.602z"/>
  <path d="m346.2 891.6c15.051-8.8828 30.594-16.895 46.562-24 12.551-45.324 39.613-85.285 77.043-113.76 37.434-28.473 83.164-43.891 130.2-43.891s92.762 15.418 130.2 43.891c37.43 28.473 64.492 68.434 77.043 113.76 15.969 7.1055 31.512 15.117 46.562 24l5.5195 3.2383c10.809 5.9141 22.238 10.625 34.078 14.039-4.2852-74.91-37.066-145.35-91.617-196.87s-126.75-80.223-201.78-80.223-147.23 28.703-201.78 80.223-87.332 121.96-91.617 196.87c11.84-3.4141 23.27-8.125 34.078-14.039z"/>
  <path d="m793.08 861.84c-13.258-40.762-39.082-76.281-73.762-101.47-34.684-25.188-76.449-38.754-119.32-38.754s-84.633 13.566-119.32 38.754c-34.68 25.191-60.504 60.711-73.762 101.47 23.609-8.75 49.145-10.988 73.918-6.4805 24.645-42.484 70.047-68.633 119.16-68.633s94.516 26.148 119.16 68.633c24.773-4.5078 50.309-2.2695 73.918 6.4805z"/>
  <path d="m706.92 858.24c-22.93-37.02-63.375-59.551-106.92-59.551s-83.992 22.531-106.92 59.551c31.801 9.1211 67.199 30.84 106.92 72.719 39.719-41.879 75.121-63.598 106.92-72.719z"/>
  <path d="m515.04 1026h-389.04v48h468v-48z"/>
  <path d="m487.08 869.04-6-1.3203-6.1211-1.1992h0.003907c-24.426-3.4258-49.324-0.10547-72 9.6016l-6.8398 2.8789-6.8398 3.1211c-12.84 6.1211-25.078 13.078-37.078 19.922l-5.3984 3.1211-0.003907-0.003906c-12.902 7.0742-26.598 12.594-40.801 16.441l-6 1.6797-6 1.4414v-0.003906c-25.828 5.7891-52.145 9.125-78.602 9.9609-23.16 0.96094-42.359 0-51.84 0v79.32h430.44v-72c-40.32-43.199-75.48-64.801-106.92-72.961z"/>
  <path d="m971.16 1026h-365.16v48h468v-48z"/>
  <path d="m847.92 902.04c-12-6.8398-24-13.801-37.078-19.922l-6.8438-3.1172-6.8398-3c-22.676-9.707-47.574-13.027-72-9.6016l-6.1211 1.1992-6 1.3203c-31.441 8.1602-66.602 29.762-106.92 72.961v72h430.32v-79.438c-9.4805 0-28.68 1.1992-51.84 0-26.457-0.83594-52.773-4.1719-78.602-9.9609l-6-1.4414-6.1211-1.6797c-14.113-3.8789-27.727-9.3945-40.559-16.438z"/>
  <path d="m396.84 124.44c-43.477-9.8711-89.066-3.2539-127.95 18.57-38.875 21.82-68.273 57.293-82.492 99.543-14.223 42.254-12.258 88.281 5.5117 129.17 17.773 40.891 50.086 73.727 90.68 92.156 40.594 18.426 86.586 21.133 129.06 7.5977 42.477-13.539 78.418-42.355 100.86-80.875-46.473 15.461-97.605 6.5352-136.09-23.754-38.488-30.293-59.176-77.895-55.066-126.7 4.1094-48.805 32.469-92.277 75.477-115.71z"/>
  <path d="m869.4 219.72v-46.801 0.003906c0-1.5938-0.62891-3.1211-1.7539-4.2461-1.1289-1.125-2.6523-1.7539-4.2461-1.7539-3.3125 0-6 2.6836-6 6v46.801-0.003906c0 1.5938 0.63281 3.1172 1.7578 4.2422s2.6523 1.7578 4.2422 1.7578c3.2891-0.0625 5.9375-2.7109 6-6z"/>
  <path d="m857.4 500.28v46.801-0.003906c0 1.5938 0.63281 3.1211 1.7578 4.2461s2.6523 1.7539 4.2422 1.7539c1.5938 0 3.1172-0.62891 4.2461-1.7539 1.125-1.125 1.7539-2.6523 1.7539-4.2461v-46.801 0.003906c-0.0625-3.2891-2.7109-5.9375-6-6-3.3125 0-6 2.6836-6 6z"/>
  <path d="m676.32 354c-3.3125 0-6 2.6875-6 6s2.6875 6 6 6h46.801c3.3125 0 6-2.6875 6-6s-2.6875-6-6-6z"/>
  <path d="m1050.5 366c3.3125 0 6-2.6875 6-6s-2.6875-6-6-6h-46.801c-3.3125 0-6 2.6875-6 6s2.6875 6 6 6z"/>
  <path d="m956.88 360c0 51.629-41.852 93.48-93.48 93.48-51.625 0-93.477-41.852-93.477-93.48s41.852-93.48 93.477-93.48c51.629 0 93.48 41.852 93.48 93.48"/>
  <path d="m991.44 223.44-33.121 33.121v-0.003906c-2.3008 2.375-2.3008 6.1484 0 8.5195 2.3984 2.2422 6.1211 2.2422 8.5195 0l33.121-33.121v0.003907c2.3516-2.3555 2.3516-6.168 0-8.5195-2.3555-2.3555-6.168-2.3555-8.5195 0z"/>
  <path d="m759.96 454.92-33.121 33.121v-0.003907c-2.3008 2.375-2.3008 6.1484 0 8.5195 2.3984 2.2422 6.1211 2.2422 8.5195 0l32.641-33.117c2.3516-2.3555 2.3516-6.168 0-8.5195-2.3516-2.3555-6.168-2.3555-8.5195 0z"/>
  <path d="m735.36 223.44c-2.3516-2.3555-6.168-2.3555-8.5195 0-2.3516 2.3516-2.3516 6.1641 0 8.5195l33.121 33.121v-0.003906c1.1406 1.0664 2.6367 1.668 4.1992 1.6836 1.5977-0.011719 3.1367-0.60938 4.3203-1.6836 2.3008-2.3711 2.3008-6.1445 0-8.5195z"/>
  <path d="m958.32 454.92c-2.3008 2.3711-2.3008 6.1445 0 8.5195l33.121 33.121v-0.003906c1.1406 1.0664 2.6367 1.668 4.1992 1.6797 1.5977-0.007812 3.1367-0.60547 4.3203-1.6797 2.3008-2.3711 2.3008-6.1445 0-8.5195l-33.121-33.121v0.003906c-2.375-2.3047-6.1445-2.3047-8.5195 0z"/>
 </g>
</svg>
